<?xml version="1.0" encoding="utf-8"?>
<!-- Generator: Adobe Illustrator 22.1.0, SVG Export Plug-In . SVG Version: 6.00 Build 0)  -->
<svg version="1.1" id="Layer_1" xmlns="http://www.w3.org/2000/svg" xmlns:xlink="http://www.w3.org/1999/xlink" x="0px" y="0px"
	 viewBox="0 0 156.5 52.4" xml:space="preserve">
<style type="text/css">
	.st0{fill:#FFFFFF;}
</style>
<g>
	<path class="st0" d="M35.9,34.8c-0.8,0-1.4-0.6-1.4-1.4c-0.2-3.2-0.1-6.3,0.4-9.4L35,23l-0.7,0.8c-0.3,0.4-0.7,0.7-1,1.1
		c-0.3,0.3-0.6,0.4-1,0.4c-0.4,0-0.7-0.1-1-0.4c-0.3-0.3-0.4-0.6-0.4-1c0-0.4,0.1-0.8,0.4-1c4-4.2,6.1-7.7,6.1-7.7
		c0.3-0.4,0.7-0.7,1.3-0.7c0.2,0,0.5,0.1,0.7,0.2c0.7,0.4,1,1.2,0.7,1.9c0,0.1-3.1,7-2.5,16.8c0,0.4-0.1,0.8-0.4,1.1
		C36.7,34.6,36.4,34.8,35.9,34.8C36,34.8,35.9,34.8,35.9,34.8z"/>
	<path class="st0" d="M15.4,36.7c-1.3,0-2.4-0.3-3.6-1c-1.3-0.7-2.1-1.9-2.5-3.4C8.7,30,9.4,27.2,11.5,24c2.5-3.8,6-6.2,9.6-6.4
		c0.1,0,0.3,0,0.4,0c1.5,0,2.8,0.5,3.4,1.3c0.7,0.9,1.1,2.1,0.9,3.3c-0.3,1.9-1.6,3.7-3.7,5.2c-2,1.4-4.5,2.3-6.6,2.3
		c-0.6,0-1.1-0.1-1.6-0.2c-0.4-0.1-0.8-0.3-1.2-0.5l-0.4-0.2l-0.1,0.4c-0.3,1.1-0.2,1.9-0.1,2.4c0.2,0.7,0.5,1.2,1.1,1.5
		c0.5,0.3,1.1,0.6,2.2,0.6c2.2,0,5.3-1.6,9.5-4.8c0.6-0.4,1.2-1,1.8-1.6c0.2-0.2,0.4-0.4,0.7-0.6c0.3-0.3,0.6-0.4,1-0.4
		c0.4,0,0.8,0.2,1,0.4c0.3,0.3,0.4,0.6,0.4,1c0,0.4-0.2,0.7-0.4,1c-0.2,0.2-0.4,0.4-0.6,0.6c-0.7,0.7-1.3,1.3-2.1,1.9
		C21.8,35,18.2,36.7,15.4,36.7L15.4,36.7z M21.5,20.5c-0.4,0-0.8,0-1.2,0.1c-1.4,0.3-4,1.3-6.4,4.9c-0.1,0.1-0.1,0.2-0.2,0.3
		l-0.1,0.2l0.2,0.2c0.2,0.2,0.5,0.3,0.8,0.4c0.3,0.1,0.6,0.1,0.9,0.1c1.5,0,3.4-0.7,4.9-1.7c1.4-1,2.4-2.2,2.5-3.2
		c0.1-0.4,0-0.7-0.2-1l-0.1-0.1l-0.1,0C22.5,20.7,22.1,20.5,21.5,20.5z"/>
	<path class="st0" d="M24.7,52.1c-2.1,0-4.2-0.6-6.1-1.6L6.8,43.6C3,41.4,0.7,37.4,0.7,33.1V19.3C0.7,15,3,11,6.8,8.9L18.7,2
		c1.8-1.1,3.9-1.6,6.1-1.6s4.2,0.6,6.1,1.6l11.9,6.9c3.7,2.2,6.1,6.2,6.1,10.5v13.7c0,4.3-2.3,8.3-6.1,10.5l-11.9,6.9
		C28.9,51.5,26.8,52.1,24.7,52.1z M24.7,3c-1.7,0-3.3,0.4-4.7,1.3L8.1,11.2c-2.9,1.7-4.7,4.8-4.7,8.2v13.7c0,3.4,1.8,6.5,4.7,8.2
		L20,48.1c1.4,0.8,3.1,1.3,4.7,1.3s3.3-0.4,4.7-1.3l11.9-6.9c2.9-1.7,4.7-4.8,4.7-8.2V19.3c0-3.4-1.8-6.5-4.7-8.2L29.4,4.3
		C28,3.5,26.4,3,24.7,3z"/>
	<g>
		<path class="st0" d="M69.9,34.7H58.3V18.8H70l-0.8,2.4h-8.4V25h7.6v2.4h-7.6v4.8h9.1V34.7z"/>
		<path class="st0" d="M78.2,22.9c0.9,0,1.6,0.1,2.3,0.4c0.7,0.3,1.2,0.6,1.7,1.1c0.5,0.5,0.8,1,1,1.7c0.2,0.7,0.4,1.4,0.4,2.2v1.5
			c0,0.9-0.1,1.6-0.4,2.3c-0.2,0.7-0.6,1.2-1,1.6c-0.5,0.4-1,0.8-1.6,1c-0.6,0.2-1.3,0.3-2.1,0.3c-0.6,0-1.2-0.2-1.8-0.5
			c-0.6-0.3-1.1-0.7-1.6-1.1v5.7h-2.5V26c0-0.4,0-0.8-0.1-1.1c-0.1-0.3-0.2-0.6-0.3-1l2.2-1c0.1,0.2,0.2,0.4,0.3,0.6
			c0.1,0.2,0.2,0.5,0.2,0.7H75c0.4-0.4,0.9-0.8,1.4-1C77,23,77.6,22.9,78.2,22.9z M78.1,25.1c-0.6,0-1.2,0.2-1.7,0.5
			c-0.6,0.3-1,0.7-1.4,1.2v4.2c0.2,0.2,0.4,0.5,0.7,0.7c0.3,0.2,0.5,0.4,0.8,0.6c0.3,0.2,0.6,0.3,0.9,0.4c0.3,0.1,0.6,0.2,1,0.2
			c0.5,0,1-0.1,1.3-0.2c0.3-0.2,0.6-0.4,0.8-0.7c0.2-0.3,0.3-0.6,0.4-1c0.1-0.4,0.1-0.8,0.1-1.2v-1.2c0-0.5,0-0.9-0.1-1.3
			c-0.1-0.4-0.3-0.8-0.5-1.1c-0.2-0.3-0.5-0.5-0.9-0.7C79.1,25.2,78.7,25.1,78.1,25.1z"/>
		<path class="st0" d="M87.2,18.5c0.4,0,0.7,0.1,1,0.4c0.3,0.3,0.4,0.6,0.4,1c0,0.4-0.1,0.7-0.4,1c-0.3,0.2-0.6,0.4-1,0.4
			c-0.4,0-0.7-0.1-1-0.4c-0.3-0.2-0.4-0.6-0.4-1c0-0.4,0.1-0.7,0.4-1C86.4,18.6,86.8,18.5,87.2,18.5z M86,34.7V23.1h2.5v11.6H86z"/>
		<path class="st0" d="M95.4,22.9c0.8,0,1.5,0.1,2.2,0.4c0.7,0.3,1.2,0.7,1.7,1.2l-1.6,1.5c-0.3-0.3-0.6-0.5-1-0.7
			c-0.4-0.2-0.8-0.3-1.4-0.3c-0.6,0-1.2,0.1-1.6,0.2c-0.4,0.2-0.6,0.4-0.6,0.8c0,0.2,0,0.3,0.1,0.5c0.1,0.1,0.2,0.3,0.4,0.3
			c0.1,0.1,0.3,0.2,0.5,0.2c0.2,0.1,0.4,0.1,0.6,0.2c0.6,0.2,1.1,0.3,1.7,0.5c0.6,0.1,1.1,0.3,1.7,0.6c0.3,0.1,0.5,0.3,0.8,0.5
			c0.2,0.2,0.5,0.4,0.7,0.6c0.2,0.2,0.3,0.5,0.5,0.8c0.1,0.3,0.2,0.6,0.2,0.9c0,0.7-0.1,1.3-0.4,1.8c-0.3,0.5-0.6,0.9-1.1,1.2
			c-0.5,0.3-1,0.5-1.6,0.7c-0.6,0.1-1.2,0.2-1.8,0.2c-1,0-1.9-0.2-2.8-0.5c-0.8-0.3-1.5-1-2-1.9l1.9-1.2c0.4,0.5,0.7,0.8,1.2,1.1
			c0.4,0.2,1.1,0.3,1.8,0.3c1.5,0,2.2-0.4,2.2-1.3c0-0.4-0.2-0.6-0.5-0.8c-0.3-0.2-0.7-0.4-1.1-0.5c-0.6-0.2-1.1-0.3-1.8-0.5
			c-0.6-0.1-1.2-0.3-1.8-0.6c-0.6-0.3-1.1-0.7-1.4-1.2c-0.3-0.5-0.5-1.1-0.5-1.8c0-0.5,0.1-1,0.3-1.4c0.2-0.4,0.6-0.7,1-1
			c0.4-0.3,0.9-0.5,1.5-0.6C94.1,22.9,94.7,22.9,95.4,22.9z"/>
		<path class="st0" d="M107.7,35c-0.9,0-1.7-0.2-2.4-0.5c-0.7-0.3-1.3-0.7-1.8-1.3c-0.5-0.5-0.8-1.2-1.1-1.9
			c-0.2-0.7-0.4-1.5-0.4-2.4v-0.4c0-0.8,0.2-1.6,0.4-2.2c0.3-0.7,0.6-1.3,1.1-1.8c0.5-0.5,1.1-0.9,1.8-1.2c0.7-0.3,1.5-0.4,2.3-0.4
			c0.8,0,1.6,0.1,2.3,0.4c0.7,0.3,1.3,0.7,1.8,1.2c0.5,0.5,0.9,1.1,1.2,1.8c0.3,0.7,0.4,1.4,0.4,2.2v0.5c0,0.9-0.1,1.7-0.4,2.4
			c-0.3,0.7-0.6,1.4-1.1,1.9c-0.5,0.5-1.1,1-1.8,1.3C109.4,34.8,108.6,35,107.7,35z M111.1,28.9v-0.5c0-1-0.3-1.8-0.8-2.5
			c-0.5-0.6-1.4-0.9-2.5-0.9c-1.2,0-2,0.3-2.5,0.9c-0.5,0.6-0.8,1.5-0.8,2.5V29c0,0.6,0,1.1,0.1,1.5c0.1,0.5,0.3,0.8,0.5,1.2
			c0.2,0.3,0.6,0.6,1,0.8c0.4,0.2,1,0.3,1.7,0.3c0.7,0,1.2-0.1,1.7-0.3c0.4-0.2,0.8-0.5,1-0.8c0.3-0.3,0.4-0.7,0.5-1.2
			C111,30,111.1,29.5,111.1,28.9z"/>
		<path class="st0" d="M123.7,19.2l2.5-0.7v13.6c0,0.3,0,0.6,0,0.8c0,0.2,0.1,0.4,0.1,0.6c0.1,0.2,0.1,0.4,0.2,0.6
			c0.1,0.2,0.2,0.4,0.3,0.6h-2.6c-0.1-0.2-0.2-0.4-0.3-0.6c-0.1-0.3-0.1-0.5-0.1-0.7c-0.5,0.5-1,0.8-1.6,1.2
			c-0.6,0.3-1.2,0.5-1.9,0.5c-0.8,0-1.5-0.1-2.1-0.4c-0.6-0.3-1.1-0.6-1.5-1.1c-0.4-0.5-0.7-1-0.9-1.6c-0.2-0.6-0.3-1.3-0.3-2.1
			v-1.1c0-1.9,0.5-3.4,1.5-4.4c1-1,2.5-1.5,4.5-1.5c0.7,0,1.5,0.1,2.2,0.4V19.2z M123.7,25.6c-0.3-0.2-0.7-0.3-1.2-0.4
			c-0.4-0.1-0.8-0.1-1.2-0.1c-0.6,0-1.1,0.1-1.5,0.3c-0.4,0.2-0.8,0.4-1,0.7c-0.3,0.3-0.5,0.7-0.6,1.1c-0.1,0.4-0.2,0.9-0.2,1.4v0.8
			c0,0.4,0,0.8,0.1,1.3c0.1,0.4,0.2,0.8,0.4,1.1c0.2,0.3,0.4,0.6,0.7,0.7c0.3,0.2,0.7,0.3,1.2,0.3c0.3,0,0.6-0.1,1-0.2
			c0.3-0.1,0.6-0.2,0.9-0.4c0.3-0.2,0.6-0.4,0.8-0.6c0.3-0.2,0.5-0.4,0.7-0.7V25.6z"/>
		<path class="st0" d="M131.1,29.7c0,0.4,0.1,0.9,0.2,1.2c0.1,0.4,0.3,0.7,0.6,1c0.3,0.3,0.6,0.5,1.1,0.6c0.4,0.2,1,0.2,1.7,0.2
			c0.6,0,1-0.1,1.4-0.3c0.3-0.2,0.7-0.4,1-0.8l2.1,0.8c-0.5,0.8-1.1,1.4-1.9,1.8c-0.8,0.4-1.7,0.6-2.6,0.6c-1.9,0-3.4-0.5-4.4-1.5
			c-1-1-1.5-2.5-1.5-4.4v-0.3c0-0.2,0-0.4,0-0.6c0-0.2,0-0.4,0-0.5c0-0.7,0.2-1.4,0.5-2c0.3-0.6,0.7-1.1,1.2-1.5
			c0.5-0.4,1.1-0.8,1.7-1c0.7-0.2,1.4-0.3,2.1-0.3c0.8,0,1.6,0.1,2.2,0.4c0.7,0.3,1.2,0.6,1.7,1.1c0.5,0.5,0.8,1.1,1,1.7
			c0.2,0.7,0.4,1.4,0.4,2.3v1.3H131.1z M131.1,27.6h5.9c0-0.4-0.1-0.7-0.2-1c-0.1-0.3-0.3-0.6-0.6-0.8c-0.3-0.2-0.6-0.4-0.9-0.5
			c-0.3-0.1-0.7-0.2-1.1-0.2c-0.4,0-0.8,0-1.1,0.1c-0.4,0.1-0.7,0.2-1,0.4c-0.3,0.2-0.5,0.5-0.7,0.8
			C131.2,26.8,131.1,27.1,131.1,27.6z"/>
		<path class="st0" d="M148.8,32.3h2.5v-10l-2,1.9l-1.6-1.7l3.6-3.5h2.5v13.2h2.5v2.5h-7.5V32.3z"/>
	</g>
</g>
</svg>
